<svg width="14" height="14" viewBox="0 0 14 14" fill="none" xmlns="http://www.w3.org/2000/svg">
<g clip-path="url(#clip0_55_6)">
<g opacity="0.500893" filter="url(#filter0_f_55_6)">
<path d="M7.00496 1.85797C9.84286 1.85797 12.1283 4.1808 12.1283 7.01869C12.1283 9.85659 9.84286 12.142 7.00496 12.142C4.16707 12.142 1.84424 9.85659 1.84424 7.01869C1.84424 4.1808 4.16707 1.85797 7.00496 1.85797Z" fill="white"/>
</g>
<path opacity="0.34" d="M6.97656 0.0644531C6.94675 0.851417 5.99219 1.75 5.99219 1.75C5.99219 1.75 6.07607 1.81174 6.20117 1.90234C5.1499 2.05949 4.20571 2.53651 3.46289 3.22656L3.60352 3.50195C4.38066 2.75515 5.40425 2.26211 6.54102 2.16211C6.75793 2.34786 6.96394 2.56089 6.97656 2.71875C6.98861 2.56088 7.18542 2.34786 7.40234 2.16211C8.54083 2.26231 9.56774 2.75718 10.3457 3.50586L10.4883 3.22461C9.74407 2.53382 8.7948 2.0597 7.74219 1.90234C7.86735 1.81176 7.95898 1.75 7.95898 1.75C7.95898 1.75 7.00631 0.845495 6.97656 0.0644531ZM2.49805 4.4375C2.05898 5.19662 1.80273 6.07697 1.80273 7.01758C1.80273 8.06388 2.11748 9.03268 2.65039 9.8457C2.46884 9.80468 2.33789 9.76562 2.33789 9.76562C2.33789 9.76562 2.28178 11.0396 1.73828 11.5898C2.36443 11.1252 3.62695 11.2559 3.62695 11.2559C3.62695 11.2559 3.60412 11.1131 3.58984 10.9238C4.30744 11.5453 5.19871 11.9722 6.18164 12.123L6.30859 11.8359C5.25209 11.6927 4.30378 11.2121 3.57617 10.5039C3.57943 10.2397 3.61185 9.98137 3.71484 9.87695C3.59595 9.96554 3.33364 9.96199 3.06836 9.92578C2.77772 9.5371 2.54574 9.10299 2.38086 8.63672L3.15625 8.04492V7.40039L3.06836 7.33594L3.15625 7.26953V6.9375L2.85156 7.16797L2.12109 6.60352C2.13322 6.45824 2.15519 6.31129 2.17969 6.16992L3.15625 6.92188V6.59766L2.23633 5.88086C2.35406 5.38705 2.54596 4.92273 2.80078 4.5L2.49805 4.4375ZM11.4453 4.4375L11.1426 4.5C11.3974 4.92273 11.5893 5.38705 11.707 5.88086L10.7227 6.64062V7.22656L10.8672 7.33594L10.7227 7.45117V7.99414L11.5625 8.64453C11.3978 9.1079 11.1562 9.54509 10.8672 9.93164C10.612 9.96419 10.3623 9.96062 10.248 9.875V9.87695C10.3475 9.97604 10.3847 10.2226 10.3906 10.4746C9.65979 11.1964 8.70313 11.6901 7.63477 11.8359L7.76172 12.123C8.75503 11.9703 9.65545 11.5344 10.377 10.9023C10.3625 11.1069 10.3398 11.2559 10.3398 11.2559C10.3398 11.2559 11.6023 11.1252 12.2285 11.5898C11.6819 11.0414 11.627 9.76562 11.627 9.76562C11.627 9.76562 11.4881 9.81068 11.2949 9.85352C11.8299 9.03943 12.1406 8.06614 12.1406 7.01758C12.1406 6.07697 11.8844 5.19662 11.4453 4.4375ZM11.7656 6.16406C11.7904 6.30541 11.8099 6.45238 11.8223 6.59766L11.0859 7.16797L10.7734 6.92969L11.7656 6.16406ZM2.10742 6.92188L2.64258 7.33594L2.1582 7.71094C2.12544 7.48275 2.10742 7.25485 2.10742 7.01758C2.10742 6.9872 2.10687 6.95212 2.10742 6.92188ZM11.8379 6.92188C11.8384 6.95211 11.8379 6.9872 11.8379 7.01758C11.8379 7.25719 11.8283 7.48844 11.7949 7.71875L11.2949 7.33594L11.8379 6.92188ZM2.85156 7.50195L3.13477 7.72656L2.29492 8.37695C2.25992 8.25655 2.22693 8.13184 2.20117 8.00781L2.85156 7.50195ZM11.0859 7.50195L11.7363 8.01562C11.711 8.13686 11.6846 8.25923 11.6504 8.37695L10.8027 7.72656L11.0859 7.50195Z" fill="white"/>
<path opacity="0.34" d="M6.97656 11.6113L6.54102 12.4648L6.96875 13.3262L7.40234 12.4727L6.97656 11.6113Z" fill="white"/>
<path opacity="0.34" d="M11.8672 3.07422L10.9414 3.29883L10.5566 4.17383L11.4902 3.95703L11.8672 3.07422Z" fill="white"/>
<path opacity="0.34" d="M2.07812 3.07422L2.46094 3.95703L3.38672 4.17383L3.01172 3.29883L2.07812 3.07422Z" fill="white"/>
<path d="M7.00049 3.11884C9.14251 3.11884 10.8675 4.87209 10.8675 7.0141C10.8675 9.15612 9.14251 10.8811 7.00049 10.8811C4.85848 10.8811 3.10522 9.15612 3.10522 7.0141C3.10522 4.87209 4.85848 3.11884 7.00049 3.11884Z" fill="white"/>
<path d="M7.00049 3.11884C9.14251 3.11884 10.8675 4.87209 10.8675 7.0141C10.8675 9.15612 9.14251 10.8811 7.00049 10.8811C4.85848 10.8811 3.10522 9.15612 3.10522 7.0141C3.10522 4.87209 4.85848 3.11884 7.00049 3.11884Z" fill="black" fill-opacity="0.8"/>
<path opacity="0.9" d="M7 2.50195C4.5255 2.50195 2.51562 4.53917 2.51562 7.01367C2.51562 9.48818 4.5255 11.498 7 11.498C9.47451 11.498 11.4844 9.48818 11.4844 7.01367C11.4844 4.53917 9.47451 2.50195 7 2.50195ZM7 3.24023C9.0836 3.24023 10.7461 4.93008 10.7461 7.01367C10.7461 9.09727 9.0836 10.7598 7 10.7598C4.91641 10.7598 3.22656 9.09727 3.22656 7.01367C3.22656 4.93008 4.91641 3.24023 7 3.24023Z" fill="white"/>
<path d="M7 2.9668C4.77685 2.9668 2.95312 4.79052 2.95312 7.01367C2.95312 9.23682 4.77685 11.0332 7 11.0332C9.22315 11.0332 11.0195 9.23682 11.0195 7.01367C11.0195 4.79052 9.22315 2.9668 7 2.9668ZM7 3.24023C9.07502 3.24023 10.7461 4.93865 10.7461 7.01367C10.7461 9.08869 9.07502 10.7598 7 10.7598C4.92498 10.7598 3.22656 9.08869 3.22656 7.01367C3.22656 4.93865 4.92498 3.24023 7 3.24023Z" fill="white"/>
</g>
<defs>
<filter id="filter0_f_55_6" x="0.229033" y="0.242766" width="13.5143" height="13.5145" filterUnits="userSpaceOnUse" color-interpolation-filters="sRGB">
<feFlood flood-opacity="0" result="BackgroundImageFix"/>
<feBlend mode="normal" in="SourceGraphic" in2="BackgroundImageFix" result="shape"/>
<feGaussianBlur stdDeviation="0.807603" result="effect1_foregroundBlur_55_6"/>
</filter>
<clipPath id="clip0_55_6">
<rect width="14" height="14" fill="white"/>
</clipPath>
</defs>
</svg>
