<svg width="214" height="214" viewBox="0 0 214 214" fill="none" xmlns="http://www.w3.org/2000/svg">
<g clip-path="url(#clip0_51_25)">
<path d="M107 0C104.511 0.333983 102.201 1.47817 100.427 3.25586C69.4408 30.8478 44.8898 64.9061 28.5078 103.026C5.34998 172.362 49.2506 209.185 97.3241 213.541L95.9484 209.323L101.421 201.985C103.683 198.959 104.784 197.4 106.618 194.939C91.2077 195.5 76.1502 190.245 64.4352 180.218C52.7202 170.19 45.2046 156.124 43.3808 140.812C41.2408 108.437 77.4833 47.936 103.622 27.6977C104.666 27.0986 105.811 26.6946 107 26.5054C108.184 26.6883 109.324 27.0872 110.363 27.6824C129.256 42.2956 153.346 77.8807 164.505 108.758C165.399 106.798 166.797 105.111 168.556 103.866C172.56 101.115 176.733 100.427 179.607 100.427H184.269C167.929 63.3591 143.832 30.2243 113.603 3.25586C111.819 1.47501 109.499 0.330851 107 0ZM69.443 105.899C66.2655 105.9 63.1406 106.71 60.3633 108.253C57.0368 110.177 54.5789 113.309 53.5 116.997C38.2143 167.088 76.7801 190.063 112.457 187.067L118.159 179.332C118.113 179.317 118.067 179.332 118.006 179.301L117.838 179.225L117.593 179.164C113.089 177.296 108.969 174.611 105.441 171.246L104.432 170.482L104.157 170.084C100.683 166.272 97.951 161.845 96.1013 157.03L96.0707 156.954L96.0096 156.801C94.0844 151.57 93.1262 146.034 93.1817 140.46C93.1817 135.095 94.0683 129.715 95.979 124.563L96.0707 124.044L96.1013 124.013C97.1713 121.185 98.5776 118.434 100.29 115.835C88.6724 110.99 78.4768 105.747 69.443 105.899Z" fill="white"/>
<path d="M149.127 98.5929C148 98.5944 146.907 98.9769 146.024 99.6781C145.744 99.9168 145.463 100.156 145.184 100.397C149.182 101.564 152.969 103.36 156.403 105.716C154.539 101.986 152.062 98.6999 149.127 98.5929Z" fill="white" fill-opacity="0.496933"/>
<path d="M179.622 118.021H203.269C204.25 118.352 204.614 118.922 204.362 119.73C166.011 173.118 143.337 204.164 136.342 212.867C135.945 213.755 135.091 214.119 133.779 213.96H118.677C116.888 213.96 115.829 213.47 115.497 212.49C155.081 159.499 176.251 130.368 179.006 125.095C179.417 124.433 179.622 123.704 179.622 122.909C179.622 122.009 179.093 120.75 178.033 119.134C178.205 118.392 178.735 118.021 179.622 118.021ZM110.748 140.476C110.748 136.66 111.318 133.282 112.457 130.341C113.596 127.347 115.14 124.83 117.087 122.79C119.114 120.671 121.512 119.087 124.28 118.041C127.036 116.902 130.043 116.332 133.302 116.332C136.627 116.332 139.674 116.902 142.443 118.041C145.212 119.101 147.57 120.69 149.517 122.81C151.544 124.837 153.127 127.354 154.266 130.361C155.406 133.276 155.975 136.647 155.975 140.476C155.975 144.212 155.406 147.59 154.266 150.61C153.127 153.525 151.537 156.042 149.497 158.161C147.563 160.188 145.212 161.771 142.443 162.911C139.674 163.97 136.627 164.5 133.302 164.5C130.043 164.5 127.036 163.97 124.28 162.911C121.512 161.771 119.114 160.182 117.087 158.141C115.14 156.022 113.596 153.505 112.457 150.59C111.318 147.583 110.748 144.205 110.748 140.456V140.476ZM142.324 140.476C142.324 137.879 142.079 135.561 141.589 133.521C141.191 131.494 140.582 129.791 139.76 128.414C139.032 126.956 138.098 125.857 136.958 125.115C135.819 124.307 134.6 123.903 133.302 123.903C131.924 123.903 130.666 124.3 129.527 125.095C128.467 125.837 127.533 126.943 126.725 128.414C125.983 129.791 125.373 131.494 124.897 133.521C124.486 135.561 124.28 137.879 124.28 140.476C124.28 143.072 124.479 145.391 124.877 147.431C125.367 149.458 125.983 151.2 126.725 152.657C127.52 154.114 128.447 155.214 129.507 155.956C130.659 156.684 131.918 157.048 133.282 157.048C134.594 157.048 135.819 156.684 136.958 155.956C138.098 155.227 139.032 154.127 139.76 152.657C140.568 151.2 141.178 149.458 141.589 147.431C142.079 145.391 142.324 143.072 142.324 140.476ZM168.773 186.438C168.773 182.61 169.342 179.232 170.482 176.304C171.621 173.31 173.164 170.793 175.112 168.753C177.138 166.633 179.536 165.043 182.305 163.984C185.074 162.858 188.081 162.295 191.327 162.295C194.652 162.295 197.699 162.864 200.468 164.003C203.236 165.063 205.594 166.653 207.542 168.773C209.569 170.799 211.158 173.317 212.311 176.324C213.437 179.238 214 182.61 214 186.438C214 190.174 213.43 193.546 212.291 196.553C211.152 199.467 209.562 201.984 207.522 204.104C205.588 206.144 203.236 207.734 200.468 208.873C197.699 209.933 194.652 210.463 191.327 210.463C188.081 210.463 185.074 209.933 182.305 208.873C179.536 207.734 177.138 206.144 175.112 204.104C173.164 201.984 171.621 199.467 170.482 196.553C169.342 193.546 168.773 190.187 168.773 186.438ZM200.348 186.061C200.348 183.464 200.103 181.146 199.613 179.106C199.216 177.079 198.606 175.377 197.785 173.999C197.056 172.542 196.122 171.442 194.983 170.7C193.923 169.892 192.704 169.488 191.327 169.488C190.028 169.488 188.81 169.892 187.67 170.7C186.531 171.442 185.557 172.542 184.749 173.999C184.007 175.377 183.398 177.085 182.921 179.126C182.51 181.153 182.305 183.471 182.305 186.081C182.305 188.677 182.504 190.989 182.901 193.016C183.391 195.043 184.007 196.791 184.749 198.262C185.557 199.719 186.531 200.812 187.67 201.541C188.81 202.282 190.028 202.653 191.327 202.653C192.704 202.653 193.923 202.282 194.983 201.541C196.122 200.812 197.056 199.719 197.785 198.262C198.593 196.805 199.202 195.056 199.613 193.016C200.103 190.989 200.348 188.671 200.348 186.061Z" fill="white"/>
</g>
<defs>
<clipPath id="clip0_51_25">
<rect width="214" height="214" fill="white"/>
</clipPath>
</defs>
</svg>
