<svg width="101" height="101" viewBox="0 0 101 101" fill="none" xmlns="http://www.w3.org/2000/svg">
<g clip-path="url(#clip0_49_10)">
<path d="M96.9744 5.23757C96.976 4.82717 96.8573 4.42532 96.6329 4.08169C96.4085 3.73806 96.0883 3.46774 95.7119 3.30414C92.7685 2.06329 82.9859 0 50.5 0C18.0141 0 8.24593 2.06329 5.3025 3.30414C4.92364 3.46713 4.60117 3.7381 4.37536 4.08323C4.14955 4.42836 4.0304 4.83235 4.03279 5.24479V58.9191C4.02717 60.0706 4.3392 61.2014 4.93458 62.1871C16.3259 80.9443 43.5094 97.2125 49.3746 100.704C49.7016 100.9 50.0756 101.003 50.4567 101.003C50.8379 101.003 51.2119 100.9 51.5389 100.704C57.2381 97.2269 84.436 81.3122 96.0438 62.216C96.6468 61.2276 96.9639 60.0913 96.96 58.9335L96.9744 5.23757ZM50.5 86.3406C50.9256 86.4344 24.8171 71.7894 15.6983 54.8286V11.2904C15.6983 11.2904 15.6983 8.0295 50.5 8.0295V86.3406Z" fill="white"/>
</g>
<defs>
<clipPath id="clip0_49_10">
<rect width="101" height="101" fill="white"/>
</clipPath>
</defs>
</svg>
