<svg width="103" height="103" viewBox="0 0 103 103" fill="none" xmlns="http://www.w3.org/2000/svg">
<g clip-path="url(#clip0_49_14)">
<path d="M0 103L25.75 45.8791L14.5156 10.7709L53.3761 25.75L103 0L77.25 53.3761L88.4844 88.4844L53.3761 77.25L0 103Z" fill="white"/>
<path opacity="0.5" d="M51.8311 1.39786C43.2675 1.3565 34.8385 3.52837 27.3612 7.70293L53.9426 17.9441L74.8074 7.11436C67.7331 3.35333 59.8431 1.38778 51.8311 1.39051V1.39786ZM11.0504 22.6085C5.30035 30.9983 2.23909 40.939 2.27336 51.1101C2.27336 57.9154 3.66386 64.4118 6.16528 70.3269L17.9441 44.1723L11.0504 22.6085ZM96.614 29.9509L85.0559 53.9352L92.9722 78.6626C97.7543 71.5575 100.605 63.3304 101.245 54.7898C101.885 46.2493 100.291 37.6892 96.6214 29.9509H96.614ZM53.9426 85.0486L31.0619 96.0843C38.5855 99.5821 46.871 101.122 55.1491 100.561C63.4271 100.001 71.4293 97.3572 78.4124 92.8766L53.9426 85.0486Z" fill="white"/>
</g>
<defs>
<clipPath id="clip0_49_14">
<rect width="103" height="103" fill="white"/>
</clipPath>
</defs>
</svg>
