<svg width="14" height="14" viewBox="0 0 14 14" fill="none" xmlns="http://www.w3.org/2000/svg">
<g clip-path="url(#clip0_67_6)">
<path d="M11.491 7.91894L9.00202 9.57894V11.3489L11.491 9.68894L13.98 11.3489V9.57894L11.491 7.91894ZM11.491 10.3529L9.00202 12.0129V13.7839L11.491 12.1239L13.98 13.7839V12.0129L11.491 10.3529ZM7.43002 1.65794L6.69902 2.38894C6.6564 2.43168 6.63246 2.48958 6.63246 2.54994C6.63246 2.6103 6.6564 2.6682 6.69902 2.71094L7.53602 3.54794L0.39202 10.6909C0.307968 10.7756 0.260252 10.8897 0.25902 11.0089C0.110931 11.9862 0.0310708 12.9726 0.0200195 13.9609C1.00835 13.9494 1.99471 13.8696 2.97202 13.7219C3.09129 13.7207 3.20538 13.673 3.29002 13.5889L10.433 6.44494C11.549 7.45694 11.158 7.75794 12.323 6.55094C12.3656 6.5082 12.3896 6.4503 12.3896 6.38994C12.3896 6.32958 12.3656 6.27168 12.323 6.22894L10.68 4.58794L12.606 2.66194C14.496 2.72194 13.821 2.92494 13.941 0.26694C13.941 0.206644 13.9171 0.148802 13.8746 0.106073C13.8321 0.063343 13.7743 0.039205 13.714 0.0389405H11.522C11.4631 0.0388946 11.4064 0.0616766 11.3639 0.102507C11.3214 0.143338 11.2963 0.199045 11.294 0.25794L11.319 1.37394L9.39302 3.29994L7.75202 1.65794C7.70928 1.61532 7.65138 1.59138 7.59102 1.59138C7.53066 1.59138 7.47276 1.61532 7.43002 1.65794Z" fill="white"/>
</g>
<defs>
<clipPath id="clip0_67_6">
<rect width="14" height="14" fill="white"/>
</clipPath>
</defs>
</svg>
