<svg width="77" height="77" viewBox="0 0 77 77" fill="none" xmlns="http://www.w3.org/2000/svg">
<g clip-path="url(#clip0_49_12)">
<path d="M44.418 44.836L44.3245 44.561C43.3641 41.9408 41.9511 39.5096 40.15 37.378C39.5886 36.7122 38.9919 36.077 38.3625 35.475C41.4454 35.4933 44.4093 34.2861 46.6022 32.119C48.7951 29.9519 50.0373 27.0025 50.0555 23.9195C50.0737 20.8366 48.8665 17.8727 46.6994 15.6798C44.5324 13.4869 41.5829 12.2448 38.5 12.2265C36.4676 12.2634 34.4793 12.825 32.7279 13.8569C30.9766 14.8887 29.5217 16.3558 28.5045 18.1157C27.4873 19.8756 26.9423 21.8686 26.9224 23.9012C26.9025 25.9338 27.4084 27.9371 28.391 29.7165C26.2445 29.1038 24.0232 28.7928 21.791 28.7925C20.399 28.7944 19.0097 28.9159 17.6385 29.1555L17.4295 29.194C10.098 -1.31997 58.85 -9.19597 60.291 23.881C60.2666 28.6205 58.7066 33.2244 55.8448 37.0024C52.9831 40.7804 48.9737 43.529 44.418 44.836ZM64.559 33.0825C63.4499 32.5551 62.2981 32.1227 61.116 31.79C59.8326 35.3308 57.7533 38.5296 55.0385 41.14H55.209C57.5075 41.14 59.7544 41.8216 61.6655 43.0986C63.5767 44.3756 65.0662 46.1906 65.9459 48.3142C66.8255 50.4377 67.0556 52.7744 66.6072 55.0288C66.1588 57.2831 65.0519 59.3539 63.4266 60.9792C61.8013 62.6045 59.7306 63.7113 57.4762 64.1597C55.2219 64.6081 52.8852 64.378 50.7616 63.4984C48.6381 62.6188 46.8231 61.1292 45.5461 59.2181C44.2691 57.3069 43.5875 55.06 43.5875 52.7615C43.5862 51.9438 43.5403 51.1268 43.45 50.314C43.076 47.026 41.9592 43.866 40.1841 41.0732C38.4089 38.2804 36.0218 35.9279 33.2035 34.1935L32.1585 33.5885C28.6784 31.7055 24.7513 30.8053 20.7984 30.9845C16.8456 31.1637 13.0161 32.4156 9.72064 34.6059C6.42521 36.7962 3.78818 39.8422 2.09237 43.4173C0.396558 46.9924 -0.294054 50.9617 0.0946028 54.8995C0.483259 58.8373 1.93652 62.595 4.29852 65.7696C6.66053 68.9442 9.84216 71.416 13.5022 72.9198C17.1622 74.4235 21.1626 74.9026 25.0742 74.3056C28.9858 73.7086 32.6611 72.0581 35.706 69.531C36.157 69.157 36.586 68.761 37.004 68.354L36.85 68.145C34.4958 65.3264 32.8194 62.0055 31.9495 58.4375C30.8358 60.4248 29.1624 62.0407 27.1375 63.0843C25.1126 64.1278 22.8255 64.553 20.5608 64.3068C18.2961 64.0606 16.1538 63.1539 14.4004 61.6996C12.6471 60.2453 11.36 58.3076 10.6994 56.1274C10.0387 53.9473 10.0337 51.621 10.685 49.4381C11.3362 47.2551 12.6149 45.3119 14.362 43.85C16.1091 42.3882 18.2475 41.4723 20.5111 41.2164C22.7747 40.9604 25.0636 41.3757 27.093 42.4105C27.4597 42.5939 27.8061 42.7955 28.1325 43.0155C29.5356 43.9274 30.7251 45.1319 31.6193 46.5463C32.5136 47.9608 33.0915 49.5519 33.3135 51.2105C33.3798 51.7212 33.4129 52.2356 33.4125 52.7505C33.4097 56.6514 34.4538 60.4816 36.4359 63.8414C38.4181 67.2013 41.2656 69.9676 44.6813 71.8517C48.097 73.7358 51.9558 74.6688 55.855 74.5532C59.7542 74.4375 63.5509 73.2776 66.849 71.1944C70.1471 69.1112 72.8257 66.181 74.6053 62.7097C76.3848 59.2383 77.2002 55.353 76.9662 51.4591C76.7323 47.5652 75.4577 43.8054 73.2753 40.5721C71.0929 37.3388 68.0828 34.7559 64.559 33.0825Z" fill="white"/>
</g>
<defs>
<clipPath id="clip0_49_12">
<rect width="77" height="77" fill="white"/>
</clipPath>
</defs>
</svg>
