<svg width="277" height="277" viewBox="0 0 277 277" fill="none" xmlns="http://www.w3.org/2000/svg">
<path d="M138.5 0C49.4248 0 22.5953 5.63893 14.5228 9.04207C13.4843 9.49338 12.6019 10.2409 11.986 11.1911C11.3702 12.1413 11.0482 13.252 11.0603 14.3842V161.61C11.0521 164.755 11.9076 167.841 13.5335 170.533C40.3036 214.616 98.6318 253.554 124.967 269.857L131.278 261.429C140.696 248.825 146.454 240.95 152.944 232.146C152.884 232.106 152.825 232.126 152.746 232.086L152.528 231.988L152.212 231.908C147.23 229.848 142.603 227.017 138.5 223.519V236.815C139.667 237.072 68.0629 196.888 43.0538 150.352V30.9646C43.0538 30.9646 43.0538 22.0611 138.5 22.0611V140.024C142.655 136.462 147.404 133.653 152.449 131.674C158.838 129.104 165.664 127.794 172.551 127.816C179.417 127.816 186.302 129.042 192.792 131.674C199.302 134.226 205.099 138.203 209.828 143.189L209.867 143.229C210.401 143.763 210.54 144.535 211.034 145.089C212.657 141.27 214.002 137.372 218.177 134.464C223.361 130.902 228.762 130.012 232.482 130.012H265.92V14.3842C265.932 13.252 265.61 12.1413 264.994 11.1911C264.378 10.2409 263.496 9.49338 262.458 9.04207C254.405 5.63893 227.575 0 138.5 0Z" fill="white"/>
<path d="M232.502 152.766H263.11C264.379 153.194 264.851 153.932 264.525 154.978C214.883 224.082 185.535 264.268 176.481 275.534C175.966 276.683 174.86 277.154 173.163 276.949H153.614C151.299 276.949 149.928 276.314 149.499 275.045C200.736 206.455 228.138 168.747 231.705 161.922C232.236 161.065 232.502 160.122 232.502 159.093C232.502 157.927 231.816 156.298 230.444 154.206C230.667 153.246 231.353 152.766 232.502 152.766ZM143.351 181.831C143.351 176.892 144.089 172.52 145.563 168.713C147.038 164.837 149.036 161.579 151.557 158.939C154.18 156.195 157.284 154.146 160.868 152.791C164.434 151.317 168.327 150.579 172.545 150.579C176.849 150.579 180.793 151.317 184.377 152.791C187.961 154.163 191.013 156.221 193.534 158.964C196.158 161.588 198.207 164.846 199.681 168.739C201.156 172.511 201.893 176.875 201.893 181.831C201.893 186.666 201.156 191.039 199.681 194.949C198.207 198.721 196.149 201.979 193.508 204.723C191.005 207.346 187.961 209.396 184.377 210.87C180.793 212.242 176.849 212.928 172.545 212.928C168.327 212.928 164.434 212.242 160.868 210.87C157.284 209.396 154.18 207.338 151.557 204.697C149.036 201.953 147.038 198.695 145.563 194.923C144.089 191.03 143.351 186.658 143.351 181.805V181.831ZM184.223 181.831C184.223 178.47 183.906 175.469 183.271 172.828C182.757 170.205 181.968 168.001 180.905 166.218C179.962 164.332 178.753 162.908 177.278 161.948C175.803 160.902 174.226 160.379 172.545 160.379C170.762 160.379 169.133 160.894 167.658 161.922C166.286 162.883 165.077 164.314 164.031 166.218C163.071 168.001 162.282 170.205 161.665 172.828C161.134 175.469 160.868 178.47 160.868 181.831C160.868 185.192 161.125 188.193 161.639 190.833C162.274 193.457 163.071 195.712 164.031 197.598C165.06 199.484 166.261 200.907 167.632 201.868C169.124 202.811 170.753 203.282 172.52 203.282C174.217 203.282 175.803 202.811 177.278 201.868C178.753 200.925 179.962 199.501 180.905 197.598C181.951 195.712 182.74 193.457 183.271 190.833C183.906 188.193 184.223 185.192 184.223 181.831ZM218.458 241.324C218.458 236.369 219.195 231.996 220.67 228.206C222.145 224.331 224.142 221.073 226.663 218.432C229.287 215.689 232.39 213.631 235.974 212.259C239.558 210.802 243.451 210.073 247.652 210.073C251.956 210.073 255.9 210.81 259.484 212.285C263.068 213.657 266.12 215.714 268.641 218.458C271.264 221.082 273.322 224.34 274.814 228.232C276.271 232.005 277 236.369 277 241.324C277 246.16 276.263 250.524 274.788 254.417C273.313 258.189 271.256 261.447 268.615 264.191C266.111 266.831 263.068 268.889 259.484 270.364C255.9 271.736 251.956 272.422 247.652 272.422C243.451 272.422 239.558 271.736 235.974 270.364C232.39 268.889 229.287 266.831 226.663 264.191C224.142 261.447 222.145 258.189 220.67 254.417C219.195 250.524 218.458 246.177 218.458 241.324ZM259.329 240.836C259.329 237.475 259.012 234.474 258.378 231.833C257.863 229.21 257.074 227.006 256.011 225.223C255.068 223.337 253.859 221.913 252.385 220.953C251.013 219.907 249.435 219.384 247.652 219.384C245.971 219.384 244.394 219.907 242.919 220.953C241.444 221.913 240.184 223.337 239.138 225.223C238.178 227.006 237.389 229.218 236.772 231.859C236.24 234.483 235.974 237.483 235.974 240.861C235.974 244.222 236.232 247.215 236.746 249.838C237.38 252.462 238.178 254.725 239.138 256.629C240.184 258.515 241.444 259.93 242.919 260.873C244.394 261.833 245.971 262.313 247.652 262.313C249.435 262.313 251.013 261.833 252.385 260.873C253.859 259.93 255.068 258.515 256.011 256.629C257.057 254.742 257.846 252.479 258.378 249.838C259.012 247.215 259.329 244.214 259.329 240.836Z" fill="white"/>
</svg>
