<svg width="75" height="75" viewBox="0 0 75 75" fill="none" xmlns="http://www.w3.org/2000/svg">
<path d="M41.5446 8.84463L50.3464 17.6464L60.675 7.32856L60.5357 1.33928C60.5468 1.02282 60.6804 0.723045 60.9082 0.503171C61.1361 0.283297 61.4405 0.160511 61.7571 0.160706H73.5428C73.7037 0.160704 73.8629 0.192474 74.0115 0.254191C74.16 0.315909 74.2949 0.406358 74.4084 0.520346C74.5219 0.634334 74.6118 0.769616 74.6728 0.918426C74.7339 1.06724 74.765 1.22664 74.7643 1.38749C74.116 15.6375 77.7428 14.55 67.6018 14.2446L57.2464 24.5571L66.0535 33.375C66.2819 33.604 66.4101 33.9141 66.4101 34.2375C66.4101 34.5609 66.2819 34.871 66.0535 35.1C59.8018 41.5714 61.9018 39.9589 55.9178 34.5321L17.6089 72.8196C17.1659 73.2719 16.5649 73.5349 15.9321 73.5536C10.6931 74.3451 5.40531 74.7711 0.107117 74.8286C0.162205 69.5321 0.588248 64.2459 1.38212 59.0089C1.38339 58.6908 1.44746 58.3761 1.57064 58.0829C1.69383 57.7896 1.87372 57.5236 2.09997 57.3L40.3821 18.9803L35.8928 14.4857C35.6642 14.2558 35.5358 13.9448 35.5358 13.6205C35.5358 13.2963 35.6642 12.9852 35.8928 12.7553L39.8143 8.84463C40.0432 8.61629 40.3534 8.48806 40.6768 8.48806C41.0001 8.48806 41.3157 8.61629 41.5446 8.84463Z" fill="white"/>
</svg>
