<svg width="92" height="92" viewBox="0 0 92 92" fill="none" xmlns="http://www.w3.org/2000/svg">
<path d="M23.4074 46.0131C23.3909 42.5166 24.067 39.0513 25.3967 35.8174C26.7263 32.5835 28.6833 29.6448 31.1545 27.1711C33.6258 24.6974 36.5624 22.7376 39.7951 21.4047C43.0277 20.0719 46.4922 19.3924 49.9888 19.4054L49.9823 3.99542C26.8771 4.00857 7.99084 22.9146 7.99084 46.0197L23.4074 46.0131Z" fill="white" fill-opacity="0.5"/>
<path d="M49.9889 3.98883V19.3923C53.4854 19.3775 56.9503 20.0553 60.1836 21.3865C63.4169 22.7178 66.3545 24.6762 68.827 27.1487C71.2995 29.6212 73.2579 32.5588 74.5891 35.7921C75.9204 39.0253 76.5982 42.4902 76.5834 45.9868C76.5982 49.4834 75.9204 52.9483 74.5891 56.1816C73.2579 59.4149 71.2995 62.3525 68.827 64.825C66.3545 67.2975 63.4169 69.2558 60.1836 70.5871C56.9503 71.9184 53.4854 72.5962 49.9889 72.5814C45.1398 72.5849 40.3828 71.257 36.2366 68.7424C32.0905 66.2278 28.7143 62.6231 26.4763 58.3214L37.8251 56.0346L12.2886 27.094L0 63.6705L10.9743 61.456C17.1646 76.9645 32.338 87.998 49.9889 87.998C73.094 87.9914 92 69.1117 92 46C92 22.8883 73.094 3.98883 49.9889 3.98883Z" fill="white"/>
</svg>
