<svg width="291" height="291" viewBox="0 0 291 291" fill="none" xmlns="http://www.w3.org/2000/svg">
<g clip-path="url(#clip0_51_35)">
<path d="M291 99.0439V191.956C291 195.199 289.713 198.31 287.422 200.606C285.13 202.901 282.021 204.193 278.778 204.199H204.199V278.778C204.193 282.021 202.901 285.13 200.606 287.422C198.31 289.713 195.199 291 191.956 291H99.0439C95.8005 291 92.6897 289.713 90.3943 287.422C88.0989 285.13 86.8067 282.021 86.8011 278.778V204.199H12.222C8.97861 204.193 5.86995 202.901 3.57848 200.606C1.287 198.31 -4.67453e-06 195.199 0 191.956L0 99.0439C-4.67453e-06 95.8005 1.287 92.6897 3.57848 90.3943C5.86995 88.0989 8.97861 86.8067 12.222 86.8011H86.8011V12.222C86.8067 8.97861 88.0989 5.86995 90.3943 3.57848C92.6897 1.287 95.8005 -4.67453e-06 99.0439 0L191.956 0C195.199 -4.67453e-06 198.31 1.287 200.606 3.57848C202.901 5.86995 204.193 8.97861 204.199 12.222V86.8011H278.778C282.021 86.8067 285.13 88.0989 287.422 90.3943C289.713 92.6897 291 95.8005 291 99.0439Z" fill="white"/>
</g>
<defs>
<clipPath id="clip0_51_35">
<rect width="291" height="291" fill="white"/>
</clipPath>
</defs>
</svg>
