<svg width="81" height="81" viewBox="0 0 81 81" fill="none" xmlns="http://www.w3.org/2000/svg">
<g clip-path="url(#clip0_49_5)">
<path d="M20.25 44.2839C20.6597 42.89 21.5899 41.7071 22.8478 40.9802C31.5842 36.0624 43.5954 53.2286 60.7095 44.1508C71.8586 79.3453 9.25139 80.2941 20.25 44.2839ZM40.5 81C20.9848 81 1.44646 66.9928 10.7962 38.9957C16.9951 24.5678 26.2858 11.6766 38.0122 1.23236C38.6836 0.559495 39.5579 0.126414 40.5 0C41.4452 0.123639 42.3234 0.554632 42.9995 1.22657C54.7286 11.6719 64.0213 24.5652 70.2212 38.9957C79.5478 66.9928 60.0326 81 40.5 81ZM41.7729 10.4721C41.3787 10.2509 40.9473 10.1038 40.5 10.0382C40.0531 10.1051 39.6219 10.2521 39.2272 10.4721C29.3336 18.1324 15.6215 41.0323 16.4257 53.2864C17.1149 59.109 19.9783 64.4563 24.4424 68.2575C28.9066 72.0587 34.642 74.033 40.5 73.7852C46.3546 74.0352 52.0876 72.0655 56.5523 68.2702C61.0171 64.4748 63.8842 59.1338 64.5802 53.3154C65.3844 41.0323 51.6722 18.1324 41.7729 10.4721Z" fill="white"/>
<path d="M46.17 46.4593C48.945 43.291 51.9901 40.3698 55.2709 37.7287C58.563 35.3392 60.7095 44.1508 60.7095 44.1508C56.2832 46.6002 51.1373 47.4173 46.17 46.4593Z" fill="white" fill-opacity="0.496933"/>
</g>
<defs>
<clipPath id="clip0_49_5">
<rect width="81" height="81" fill="white"/>
</clipPath>
</defs>
</svg>
