<svg width="14" height="14" viewBox="0 0 14 14" fill="none" xmlns="http://www.w3.org/2000/svg">
<g clip-path="url(#clip0_51_20)">
<path d="M11.53 0.0310163C11.4707 0.0304501 11.4135 0.0530007 11.3706 0.0938854C11.3277 0.13477 11.3023 0.190773 11.3 0.250016L11.326 1.36702L9.398 3.29502L7.754 1.65202C7.71126 1.60939 7.65336 1.58546 7.593 1.58546C7.53263 1.58546 7.47474 1.60939 7.432 1.65202L6.702 2.38202C6.65931 2.42493 6.63535 2.48299 6.63535 2.54352C6.63535 2.60404 6.65931 2.66211 6.702 2.70502L7.539 3.54302L0.392996 10.697C0.35058 10.7387 0.316818 10.7883 0.293649 10.843C0.270481 10.8978 0.258364 10.9566 0.257996 11.016C0.110142 11.9936 0.0309482 12.9804 0.0209961 13.969C1.01001 13.958 1.99707 13.8781 2.975 13.73C3.09263 13.7265 3.20439 13.6778 3.287 13.594L6.383 10.5C6.33973 10.416 6.30068 10.3299 6.266 10.242L6.264 10.236L6.262 10.226C6.13583 9.88353 6.07281 9.52099 6.076 9.15602C6.076 8.80402 6.132 8.45302 6.258 8.11602L6.264 8.08402L6.266 8.08002C6.386 7.76402 6.562 7.46202 6.809 7.20502C7.056 6.94802 7.359 6.75102 7.686 6.62302C8.0083 6.49339 8.3526 6.42718 8.7 6.42802C9.18672 6.42619 9.66502 6.555 10.085 6.80102L10.438 6.44702C10.621 6.61302 10.757 6.75502 10.872 6.87902C10.9116 6.8355 10.9562 6.79689 11.005 6.76402C11.2181 6.61763 11.4705 6.53918 11.729 6.53902H12.341C12.3782 6.49543 12.3976 6.43943 12.3954 6.38217C12.3932 6.32491 12.3695 6.27059 12.329 6.23002L10.686 4.58402L12.618 2.65802C14.511 2.71502 13.835 2.91802 13.956 0.258016C13.9557 0.19772 13.9316 0.139984 13.8889 0.097442C13.8461 0.0548997 13.7883 0.0310157 13.728 0.0310163H11.528H11.53Z" fill="white"/>
<path d="M11.731 7.69003H13.278C13.3422 7.7117 13.366 7.74896 13.3495 7.80183C10.8405 11.2945 9.35722 13.3255 8.89962 13.8949C8.87362 13.953 8.81772 13.9768 8.73192 13.9664H7.74392C7.62692 13.9664 7.55759 13.9344 7.53592 13.8702C10.1255 10.4036 11.5105 8.49776 11.6907 8.15283C11.7176 8.1095 11.731 8.06183 11.731 8.00983C11.731 7.9509 11.6964 7.86856 11.627 7.76283C11.6383 7.7143 11.673 7.69003 11.731 7.69003ZM7.22522 9.15903C7.22522 8.90943 7.26249 8.68843 7.33702 8.49603C7.41155 8.30016 7.51252 8.1355 7.63992 8.00203C7.77252 7.86336 7.92939 7.75979 8.11052 7.69133C8.29079 7.61679 8.48752 7.57953 8.70072 7.57953C8.91825 7.57953 9.11759 7.61679 9.29872 7.69133C9.47985 7.76066 9.63412 7.86466 9.76152 8.00333C9.89412 8.13593 9.99769 8.3006 10.0722 8.49733C10.1468 8.688 10.184 8.90856 10.184 9.15903C10.184 9.40343 10.1468 9.62443 10.0722 9.82203C9.99769 10.0127 9.89369 10.1774 9.76022 10.316C9.63369 10.4486 9.47985 10.5522 9.29872 10.6267C9.11759 10.6961 8.91825 10.7307 8.70072 10.7307C8.48752 10.7307 8.29079 10.6961 8.11052 10.6267C7.92939 10.5522 7.77252 10.4482 7.63992 10.3147C7.51252 10.1761 7.41155 10.0114 7.33702 9.82073C7.26249 9.624 7.22522 9.403 7.22522 9.15773V9.15903ZM9.29092 9.15903C9.29092 8.98916 9.27489 8.8375 9.24282 8.70403C9.21682 8.57143 9.17695 8.46006 9.12322 8.36993C9.07555 8.2746 9.01445 8.20266 8.93992 8.15413C8.86539 8.10126 8.78565 8.07483 8.70072 8.07483C8.61059 8.07483 8.52825 8.10083 8.45372 8.15283C8.38439 8.20136 8.32329 8.27373 8.27042 8.36993C8.22189 8.46006 8.18202 8.57143 8.15082 8.70403C8.12395 8.8375 8.11052 8.98916 8.11052 9.15903C8.11052 9.3289 8.12352 9.48056 8.14952 9.61403C8.18159 9.74663 8.22189 9.8606 8.27042 9.95593C8.32242 10.0513 8.38309 10.1232 8.45242 10.1717C8.52782 10.2194 8.61015 10.2432 8.69942 10.2432C8.78522 10.2432 8.86539 10.2194 8.93992 10.1717C9.01445 10.1241 9.07555 10.0521 9.12322 9.95593C9.17609 9.8606 9.21595 9.74663 9.24282 9.61403C9.27489 9.48056 9.29092 9.3289 9.29092 9.15903ZM11.0212 12.1659C11.0212 11.9155 11.0585 11.6945 11.133 11.5029C11.2076 11.3071 11.3085 11.1424 11.4359 11.0089C11.5685 10.8703 11.7254 10.7663 11.9065 10.6969C12.0877 10.6233 12.2844 10.5864 12.4967 10.5864C12.7143 10.5864 12.9136 10.6237 13.0947 10.6982C13.2759 10.7676 13.4301 10.8716 13.5575 11.0102C13.6901 11.1428 13.7941 11.3075 13.8695 11.5042C13.9432 11.6949 13.98 11.9155 13.98 12.1659C13.98 12.4103 13.9428 12.6309 13.8682 12.8276C13.7937 13.0183 13.6897 13.183 13.5562 13.3216C13.4297 13.4551 13.2759 13.5591 13.0947 13.6336C12.9136 13.703 12.7143 13.7376 12.4967 13.7376C12.2844 13.7376 12.0877 13.703 11.9065 13.6336C11.7254 13.5591 11.5685 13.4551 11.4359 13.3216C11.3085 13.183 11.2076 13.0183 11.133 12.8276C11.0585 12.6309 11.0212 12.4112 11.0212 12.1659ZM13.0869 12.1412C13.0869 11.9714 13.0709 11.8197 13.0388 11.6862C13.0128 11.5536 12.973 11.4423 12.9192 11.3521C12.8716 11.2568 12.8105 11.1849 12.7359 11.1363C12.6666 11.0835 12.5869 11.057 12.4967 11.057C12.4118 11.057 12.3321 11.0835 12.2575 11.1363C12.183 11.1849 12.1193 11.2568 12.0664 11.3521C12.0179 11.4423 11.978 11.5541 11.9468 11.6875C11.92 11.8201 11.9065 11.9718 11.9065 12.1425C11.9065 12.3124 11.9195 12.4636 11.9455 12.5962C11.9776 12.7288 12.0179 12.8432 12.0664 12.9394C12.1193 13.0348 12.183 13.1063 12.2575 13.1539C12.3321 13.2025 12.4118 13.2267 12.4967 13.2267C12.5869 13.2267 12.6666 13.2025 12.7359 13.1539C12.8105 13.1063 12.8716 13.0348 12.9192 12.9394C12.9721 12.8441 13.012 12.7297 13.0388 12.5962C13.0709 12.4636 13.0869 12.312 13.0869 12.1412Z" fill="white"/>
</g>
<defs>
<clipPath id="clip0_51_20">
<rect width="14" height="14" fill="white"/>
</clipPath>
</defs>
</svg>
