<svg width="14" height="14" viewBox="0 0 14 14" fill="none" xmlns="http://www.w3.org/2000/svg">
<path d="M6.92198 12.375C6.92198 12.241 5.95198 11.273 5.25298 10.712L4.55598 10.152L5.28398 10.107C5.70998 10.08 6.21498 9.99699 6.50198 9.90399L6.99198 9.74699L7.44898 9.90199C7.83758 10.0251 8.24151 10.0931 8.64898 10.104L9.39298 10.152L8.62298 10.77C7.79798 11.433 7.06798 12.17 7.06798 12.341C7.06798 12.399 7.03498 12.446 6.99498 12.446C6.98553 12.4461 6.97614 12.4444 6.96735 12.4409C6.95857 12.4374 6.95056 12.4322 6.94378 12.4256C6.937 12.419 6.93159 12.4112 6.92785 12.4025C6.92411 12.3938 6.92212 12.3844 6.92198 12.375ZM4.16298 9.42999C3.04498 9.12999 2.19298 8.38299 1.61098 7.19399C1.22498 6.40699 0.678985 5.76299 0.389985 5.75599C0.307985 5.75399 0.357985 5.70099 0.524985 5.61299C0.872985 5.42899 1.27398 4.95299 1.50398 4.45099C1.87698 3.63699 1.94398 3.53599 2.44398 3.02499C2.99698 2.45899 3.59998 2.11599 4.30398 1.96499C4.75298 1.86899 5.98098 1.91399 6.29398 2.03799L6.50398 2.12099L6.03598 2.54899C5.77898 2.78499 5.47798 3.10899 5.36798 3.26699C5.19098 3.52199 5.11498 3.56699 4.73798 3.64199C4.41869 3.70147 4.1176 3.8344 3.85853 4.03028C3.59946 4.22617 3.3895 4.47963 3.24526 4.77063C3.10102 5.06163 3.02645 5.3822 3.02745 5.70699C3.02844 6.03177 3.10497 6.35188 3.25098 6.64199C4.04898 8.23299 6.29498 8.18999 7.08098 6.56999C7.21798 6.28999 7.24398 6.11999 7.23598 5.56399C7.22698 4.89999 7.22898 4.89399 7.48298 4.59699C7.76798 4.26399 8.23798 3.99099 8.46598 4.02499C8.83298 4.08099 9.09798 5.68099 8.88798 6.56999C8.56498 7.93999 7.44498 9.07999 6.06998 9.43799C5.55098 9.57299 4.67998 9.56899 4.16298 9.42999ZM7.81298 9.41299L7.42898 9.28999L7.90898 8.86299C8.17298 8.62799 8.47098 8.30999 8.57198 8.15699C8.72598 7.92499 8.81798 7.86699 9.13198 7.79899C9.65798 7.68699 10.082 7.46699 10.342 7.17099C11.307 6.07099 11.019 4.47399 9.73498 3.81099C9.42898 3.65299 9.26398 3.61799 8.81498 3.61799C8.18898 3.61799 7.80198 3.77399 7.33498 4.21799C6.85798 4.67199 6.74498 4.96599 6.73298 5.77499C6.72398 6.42599 6.70698 6.50499 6.52598 6.74299C6.27598 7.06999 5.83898 7.36299 5.56898 7.38199C5.37898 7.39599 5.34598 7.35899 5.18098 6.95999C4.92598 6.33999 4.91698 5.21599 5.16298 4.50099C5.71298 2.90599 7.12498 1.89999 8.81598 1.89999C10.354 1.89999 11.58 2.68999 12.286 4.13599C12.696 4.97599 13.026 5.40999 13.376 5.57599L13.649 5.70599L13.387 5.84099C13.017 6.03099 12.665 6.49199 12.32 7.24099C11.823 8.32099 10.859 9.14599 9.75299 9.44099C9.22799 9.57999 8.29098 9.56599 7.81298 9.41299Z" fill="white"/>
</svg>
