<svg width="800" height="800" viewBox="0 0 800 800" fill="none" xmlns="http://www.w3.org/2000/svg">
<g clip-path="url(#clip0_57_43)">
<path d="M157.576 800H642.424C662.507 800 678.788 783.719 678.788 763.636V351.515C678.788 331.433 662.507 315.152 642.424 315.152H606.061V206.061C606.061 92.4388 513.622 -1.52588e-05 400 -1.52588e-05C286.378 -1.52588e-05 193.939 92.4388 193.939 206.061V315.152H157.576C137.493 315.152 121.212 331.433 121.212 351.515V763.636C121.212 783.719 137.493 800 157.576 800ZM436.364 569.663V618.182C436.364 638.264 420.082 654.545 400 654.545C379.918 654.545 363.636 638.264 363.636 618.182V569.663C348.926 558.596 339.394 540.999 339.394 521.212C339.394 487.794 366.582 460.606 400 460.606C433.418 460.606 460.606 487.794 460.606 521.212C460.606 540.999 451.074 558.596 436.364 569.663ZM266.667 206.061C266.667 132.541 326.48 72.7273 400 72.7273C473.52 72.7273 533.333 132.541 533.333 206.061V315.152H266.667V206.061Z" fill="white"/>
</g>
<defs>
<clipPath id="clip0_57_43">
<rect width="800" height="800" fill="white"/>
</clipPath>
</defs>
</svg>
